<svg width="70" height="70" viewBox="0 0 70 70" fill="none" xmlns="http://www.w3.org/2000/svg">
<path d="M46.666 20.4167C46.666 19.6431 46.9733 18.9013 47.5203 18.3543C48.0673 17.8073 48.8091 17.5 49.5827 17.5C50.3562 17.5 51.0981 17.8073 51.6451 18.3543C52.1921 18.9013 52.4993 19.6431 52.4993 20.4167C52.4993 21.1902 52.1921 21.9321 51.6451 22.4791C51.0981 23.026 50.3562 23.3333 49.5827 23.3333C48.8091 23.3333 48.0673 23.026 47.5203 22.4791C46.9733 21.9321 46.666 21.1902 46.666 20.4167Z" fill="#F47720"/>
<path fill-rule="evenodd" clip-rule="evenodd" d="M35.0007 21.1458C31.3263 21.1458 27.8024 22.6054 25.2043 25.2035C22.6061 27.8017 21.1465 31.3256 21.1465 34.9999C21.1465 38.6743 22.6061 42.1981 25.2043 44.7963C27.8024 47.3945 31.3263 48.8541 35.0007 48.8541C38.675 48.8541 42.1989 47.3945 44.797 44.7963C47.3952 42.1981 48.8548 38.6743 48.8548 34.9999C48.8548 31.3256 47.3952 27.8017 44.797 25.2035C42.1989 22.6054 38.675 21.1458 35.0007 21.1458ZM25.5215 34.9999C25.5215 32.4859 26.5202 30.0748 28.2979 28.2971C30.0756 26.5194 32.4866 25.5208 35.0007 25.5208C37.5147 25.5208 39.9257 26.5194 41.7034 28.2971C43.4811 30.0748 44.4798 32.4859 44.4798 34.9999C44.4798 37.5139 43.4811 39.925 41.7034 41.7027C39.9257 43.4804 37.5147 44.4791 35.0007 44.4791C32.4866 44.4791 30.0756 43.4804 28.2979 41.7027C26.5202 39.925 25.5215 37.5139 25.5215 34.9999Z" fill="#F47720"/>
<path fill-rule="evenodd" clip-rule="evenodd" d="M50.3358 8.26297C40.1431 7.13305 29.8568 7.13305 19.6641 8.26297C13.7958 8.91922 9.05621 13.5421 8.36788 19.4396C7.15862 29.778 7.15862 40.2221 8.36788 50.5605C9.05621 56.458 13.7929 61.0809 19.6641 61.7371C29.8569 62.8659 40.1431 62.8659 50.3358 61.7371C56.2041 61.0809 60.9437 56.458 61.632 50.5605C62.8415 40.2221 62.8415 29.778 61.632 19.4396C60.9437 13.5421 56.207 8.91922 50.3358 8.26297ZM20.1483 12.6088C30.0192 11.5147 39.9807 11.5147 49.8516 12.6088C53.7308 13.0463 56.837 16.1059 57.2891 19.9501C58.4586 29.9493 58.4586 40.0508 57.2891 50.0501C57.0553 51.9314 56.194 53.679 54.8445 55.0106C53.495 56.3421 51.736 57.1798 49.8516 57.3884C39.9807 58.4826 30.0192 58.4826 20.1483 57.3884C18.264 57.1798 16.5049 56.3421 15.1554 55.0106C13.8059 53.679 12.9446 51.9314 12.7108 50.0501C11.5413 40.0508 11.5413 29.9493 12.7108 19.9501C12.9446 18.0687 13.8059 16.3211 15.1554 14.9895C16.5049 13.658 18.264 12.8174 20.1483 12.6088Z" fill="#F47720"/>
</svg>
