<svg width="60" height="60" viewBox="0 0 60 60" fill="none" xmlns="http://www.w3.org/2000/svg">
<path d="M39.36 33.825C38.6294 33.0345 37.8088 32.3322 36.915 31.7325C40.5193 28.9461 43.0454 24.9957 44.0625 20.555C44.1389 20.2336 44.1509 19.9003 44.0977 19.5743C44.0445 19.2483 43.9273 18.9361 43.7527 18.6557C43.5782 18.3752 43.3498 18.1322 43.0808 17.9405C42.8117 17.7489 42.5074 17.6125 42.1853 17.5391C41.8632 17.4658 41.5298 17.457 41.2044 17.5133C40.8789 17.5696 40.5678 17.6898 40.289 17.867C40.0103 18.0442 39.7694 18.2749 39.5803 18.5458C39.3913 18.8166 39.2578 19.1222 39.1875 19.445C38.7144 21.5226 37.7937 23.472 36.4897 25.1573C35.1857 26.8425 33.5298 28.223 31.6375 29.2025V20.005C31.6217 19.8214 31.5848 19.6402 31.5275 19.465C31.5106 19.3203 31.4813 19.1772 31.44 19.0375C31.3334 18.8091 31.1926 18.5984 31.0225 18.4125C30.9775 18.3625 30.955 18.2925 30.9075 18.2425C30.7244 18.0735 30.5171 17.9328 30.2925 17.825C30.2275 17.79 30.18 17.7325 30.1125 17.705C29.9214 17.641 29.7233 17.5999 29.5225 17.5825C29.3982 17.5463 29.2711 17.5204 29.1425 17.505L27.5075 17.5H27.5C26.9143 17.4959 26.3459 17.6985 25.895 18.0723C25.444 18.4461 25.1394 18.967 25.0349 19.5434C24.9303 20.1197 25.0325 20.7144 25.3233 21.2228C25.6142 21.7312 26.0752 22.1206 26.625 22.3225V34.5475C22.6633 30.4353 20.0398 25.2197 19.1 19.5875C18.9893 18.9337 18.6234 18.3507 18.0828 17.9668C17.5422 17.5828 16.8713 17.4293 16.2175 17.54C15.5637 17.6507 14.9807 18.0166 14.5968 18.5572C14.2128 19.0978 14.0593 19.7687 14.17 20.4225C15.6308 29.1293 20.4859 36.9011 27.67 42.0325C27.7726 42.0935 27.8796 42.147 27.99 42.1925C28.077 42.2432 28.1672 42.2883 28.26 42.3275C28.5386 42.439 28.835 42.4991 29.135 42.505C29.503 42.5004 29.8652 42.4133 30.195 42.25C30.22 42.2375 30.2475 42.245 30.2725 42.2325C30.4935 42.1168 30.6957 41.9685 30.8725 41.7925C30.91 41.7575 30.9325 41.7175 30.9675 41.68C31.1289 41.5029 31.2636 41.3033 31.3675 41.0875C31.4019 41.0166 31.4328 40.944 31.46 40.87C31.5698 40.5945 31.6291 40.3015 31.635 40.005V34.69C33.1852 35.1443 34.582 36.013 35.675 37.2025L39.7925 41.695C40.2407 42.1837 40.8647 42.4743 41.5272 42.5029C42.1896 42.5315 42.8363 42.2957 43.325 41.8475C43.8137 41.3993 44.1042 40.7753 44.1328 40.1128C44.1614 39.4504 43.9257 38.8037 43.4775 38.315L39.36 33.825ZM37.6825 2.5H22.3425C6.95 2.5 2.5 6.945 2.5 22.3175V37.6575C2.5 53.05 6.945 57.5 22.3175 57.5H37.6575C53.05 57.5 57.5 53.055 57.5 37.6825V22.3425C57.5 6.95 53.055 2.5 37.6825 2.5ZM52.5 37.6825C52.5 50.2825 50.28 52.5 37.655 52.5H22.32C9.7175 52.5 7.5 50.28 7.5 37.655V22.32C7.5 9.7175 9.72 7.5 22.345 7.5H37.6825C50.2825 7.5 52.5 9.72 52.5 22.345V37.6825Z" fill="#F47720"/>
</svg>
